<?xml version="1.0" encoding="UTF-8" standalone="no"?><!DOCTYPE svg PUBLIC "-//W3C//DTD SVG 1.1//EN" "http://www.w3.org/Graphics/SVG/1.1/DTD/svg11.dtd"><svg xmlns="http://www.w3.org/2000/svg" xmlns:xlink="http://www.w3.org/1999/xlink" viewBox="0 0 50 50" width="50px" height="50px"><rect  x="0" y="0" width="50" height="50" style="fill:none;"/><path d="M24,40l-2,0l0,-1c-0.37,0.438 -0.563,0.574 -0.979,0.782c-0.417,0.233 -0.836,0.218 -1.23,0.218c-0.484,0 -1.034,-0.437 -1.291,-0.765c-0.232,-0.3 -0.5,-0.61 -0.5,-1.235l0,-9l2,0l0,8c0,0.23 0.268,1.007 1,1c0.813,-0.008 0.819,-0.767 1,-1l0,-8l2,0l0,11Zm4,0l-2,0l0,-14l2,0l0,4c0.23,-0.36 0.575,-0.643 0.9,-0.805c0.324,-0.165 0.648,-0.255 0.973,-0.255c0.649,0 1.159,0.23 1.505,0.671c0.349,0.441 0.622,1.026 0.622,1.889l0,6c0,0.741 -0.251,1.202 -0.576,1.6c-0.321,0.392 -0.802,0.894 -1.424,0.9c-1.051,0.011 -1.614,-0.549 -2,-1l0,1Zm-11,-12l-2,0l0,12l-2,0l0,-12l-2,0l0,-2l6,0l0,2Zm18,7l0,1.546c0,0.557 0.075,0.917 0.216,1.126c0.138,0.23 0.417,0.332 0.784,0.328c0.406,-0.004 0.663,-0.085 0.801,-0.269c0.14,-0.165 0.199,-0.628 0.199,-1.231l0,-0.5l2,0l0,0.592c0,1.093 -0.088,1.902 -0.624,2.435c-0.508,0.557 -1.3,0.815 -2.338,0.815c-0.951,0 -1.692,-0.279 -2.227,-0.858c-0.53,-0.579 -0.808,-1.369 -0.808,-2.392l0,-4.708c0,-0.904 0.317,-1.574 0.9,-2.173c0.467,-0.479 1.346,-0.711 2.295,-0.711c0.951,0 1.617,0.201 2.122,0.734c0.514,0.533 0.68,1.152 0.68,2.15l0,3.116l-4,0Zm-5,-3c0,-1.001 -0.448,-1.5 -1,-1.5c-0.552,0 -0.991,0.497 -1,1l0,6c0.009,0.288 0.448,0.5 1,0.5c0.552,0 1,-0.425 1,-0.977l0,-5.023Zm7,1l0,-1c0,-0.615 -0.448,-1 -1,-1c-0.552,0 -0.991,0.463 -1,1l0,1l2,0Z"/><path d="M19,5l-2,6l-2,-6l-2,0l3,9l0,6l2,0l0,-6l3,-9l-2,0Zm6,12c0,0.969 -0.676,1 -1,1c-0.3,0 -1,-0.013 -1,-1l0,-5c0,-0.815 0.433,-1 1,-1c0.3,0 1,-0.002 1,1l0,5Zm1.24,-7.278c-0.627,-0.576 -1.27,-0.722 -2.24,-0.722c-1.068,0 -1.591,0.168 -2.242,0.701c-0.625,0.53 -0.799,0.937 -0.758,2.299l0,5c0,0.996 0.162,1.652 0.765,2.236c0.625,0.579 1.216,0.764 2.235,0.764c1.065,0 1.648,-0.184 2.248,-0.765c0.627,-0.558 0.752,-1.237 0.752,-2.235l0,-5c0,-0.882 -0.157,-1.721 -0.76,-2.278Zm6.76,-0.722l0,8c-0.011,0.683 -0.816,1 -1,1c-0.208,0 -1,-0.042 -1,-1l0,-8l-2,0l0,9c0,0.972 0.98,2 2,2c1.02,0 1.559,-0.513 2,-1l0,1l2,0l0,-11l-2,0Z" style="fill-rule:nonzero;"/><path d="M40.584,22.001c0.709,0.011 1.415,0.108 2.091,0.329c0.546,0.179 1.067,0.437 1.535,0.773c0.529,0.381 0.985,0.861 1.339,1.409c0.248,0.384 0.446,0.8 0.594,1.233c0.24,0.699 0.345,1.433 0.357,2.171c0.017,3.417 0.052,6.836 -0.002,10.253c-0.019,0.733 -0.132,1.463 -0.379,2.156c-0.153,0.43 -0.356,0.842 -0.609,1.222c-0.361,0.544 -0.823,1.017 -1.358,1.391c-0.452,0.316 -0.953,0.56 -1.477,0.732c-0.649,0.212 -1.327,0.311 -2.007,0.328c-10.111,0.158 -20.226,0.191 -30.336,0c-0.609,-0.019 -1.213,-0.116 -1.792,-0.312c-0.402,-0.136 -0.789,-0.318 -1.15,-0.541c-0.293,-0.181 -0.568,-0.389 -0.822,-0.62c-0.88,-0.8 -1.487,-1.864 -1.802,-3.005c-0.166,-0.604 -0.248,-1.226 -0.264,-1.851c-0.051,-3.279 -0.052,-6.559 0,-9.838c0.019,-0.733 0.132,-1.463 0.379,-2.156c0.153,-0.43 0.356,-0.842 0.609,-1.222c0.361,-0.543 0.823,-1.017 1.358,-1.391c0.452,-0.316 0.953,-0.56 1.477,-0.732c0.649,-0.212 1.327,-0.31 2.007,-0.328c10.083,-0.158 20.168,-0.054 30.252,-0.001Zm-30.079,1.999c-0.425,0.002 -0.849,0.043 -1.262,0.146c-0.641,0.16 -1.244,0.469 -1.708,0.944c-0.161,0.166 -0.305,0.349 -0.427,0.544c-0.167,0.266 -0.296,0.555 -0.391,0.855c-0.148,0.468 -0.209,0.957 -0.217,1.447c-0.016,3.231 -0.05,6.461 0.001,9.691c0.012,0.441 0.067,0.88 0.179,1.307c0.21,0.798 0.619,1.552 1.233,2.111c0.164,0.149 0.341,0.283 0.529,0.399c0.232,0.144 0.481,0.26 0.739,0.348c0.407,0.137 0.832,0.2 1.26,0.208c10.061,0.063 20.124,0.157 30.185,-0.001c0.398,-0.011 0.795,-0.057 1.182,-0.158c0.621,-0.163 1.206,-0.469 1.657,-0.931c0.151,-0.155 0.286,-0.325 0.404,-0.507c0.169,-0.262 0.301,-0.547 0.398,-0.844c0.153,-0.462 0.219,-0.946 0.232,-1.432c0.054,-3.417 0.054,-6.836 0,-10.254c-0.013,-0.485 -0.079,-0.97 -0.232,-1.432c-0.097,-0.297 -0.229,-0.582 -0.398,-0.844c-0.118,-0.182 -0.253,-0.352 -0.404,-0.507c-0.451,-0.462 -1.036,-0.768 -1.657,-0.931c-0.387,-0.101 -0.784,-0.147 -1.182,-0.158c-10.039,-0.157 -20.081,-0.001 -30.121,-0.001Z" style="fill-rule:nonzero;"/></svg>